<svg width="24" height="24" viewBox="0 0 24 24" fill="none" xmlns="http://www.w3.org/2000/svg">
<g clip-path="url(#clip0_2:6)">
<path d="M17 13H7V11H17V13Z" fill="#323232"/>
<path d="M12 9C10.8954 9 10 8.10457 10 7C10 5.89543 10.8954 5 12 5C13.1046 5 14 5.89543 14 7C14 7.53043 13.7893 8.03914 13.4142 8.41421C13.0391 8.78929 12.5304 9 12 9Z" fill="#323232"/>
<path d="M12 19C10.8954 19 10 18.1046 10 17C10 15.8954 10.8954 15 12 15C13.1046 15 14 15.8954 14 17C14 17.5304 13.7893 18.0391 13.4142 18.4142C13.0391 18.7893 12.5304 19 12 19Z" fill="#323232"/>
</g>
<defs>
<clipPath id="clip0_2:6">
<rect width="24" height="24" fill="white"/>
</clipPath>
</defs>
</svg>
